<svg width="32" height="32" fill="none" xmlns="http://www.w3.org/2000/svg">
  <g clip-path="url(#a)">
    <path d="M19.553 11.292a3.85 3.85 0 0 0-1.631-1.602c-.708-.368-1.538-.555-2.497-.555-1.654 0-2.981.544-3.975 1.631-.994 1.087-1.497 2.537-1.497 4.35 0 1.812.52 3.443 1.567 4.53 1.046 1.088 2.485 1.632 4.32 1.632 1.836 0 2.316-.322 3.187-.96.865-.637 1.502-1.554 1.9-2.753h-6.49V13.8h11.126v4.753c-.38 1.275-1.023 2.462-1.93 3.56-.906 1.1-2.057 1.983-3.455 2.66-1.397.679-2.97 1.018-4.724 1.018-1.753 0-3.922-.456-5.548-1.362a9.728 9.728 0 0 1-3.8-3.783c-.906-1.613-1.356-3.455-1.356-5.53 0-2.076.45-3.923 1.362-5.548a9.728 9.728 0 0 1 3.783-3.8c1.613-.9 3.455-1.357 5.53-1.357 2.076 0 4.63.608 6.355 1.824 1.725 1.216 2.865 2.9 3.426 5.057h-5.653Z" fill="#727597"/>
    <path d="M19.594 11.327a3.85 3.85 0 0 0-1.632-1.602c-.707-.368-1.537-.555-2.496-.555-1.654 0-2.981.544-3.975 1.631-.994 1.088-1.497 2.537-1.497 4.35 0 1.812.52 3.443 1.567 4.53 1.046 1.088 2.485 1.632 4.32 1.632 1.836 0 2.315-.322 3.186-.959.866-.637 1.503-1.555 1.9-2.754h-6.489v-3.765h11.126v4.753c-.38 1.275-1.023 2.462-1.93 3.56-.906 1.1-2.058 1.983-3.455 2.66-1.397.679-2.97 1.018-4.724 1.018-1.753 0-3.922-.456-5.548-1.362a9.728 9.728 0 0 1-3.8-3.783c-.9-1.607-1.356-3.455-1.356-5.524 0-2.07.45-3.923 1.362-5.548a9.728 9.728 0 0 1 3.783-3.8c1.613-.907 3.46-1.357 5.53-1.357 2.07 0 4.63.608 6.355 1.824 1.725 1.216 2.865 2.9 3.426 5.057h-5.653v-.006Z" fill="#727597"/>
    <path d="M19.64 11.368a3.85 3.85 0 0 0-1.63-1.602c-.708-.368-1.538-.555-2.497-.555-1.655 0-2.982.544-3.976 1.631-.993 1.088-1.496 2.537-1.496 4.35 0 1.812.52 3.443 1.567 4.53 1.046 1.088 2.484 1.632 4.32 1.632 1.836 0 2.315-.322 3.186-.959.865-.637 1.503-1.555 1.9-2.754h-6.49v-3.765H25.65v4.753c-.38 1.275-1.023 2.462-1.929 3.56-.906 1.1-2.058 1.983-3.455 2.66-1.397.679-2.97 1.018-4.724 1.018s-3.923-.456-5.548-1.362a9.728 9.728 0 0 1-3.8-3.783c-.906-1.607-1.356-3.455-1.356-5.53 0-2.076.45-3.923 1.362-5.548a9.728 9.728 0 0 1 3.782-3.8c1.614-.9 3.456-1.357 5.53-1.357 2.076 0 4.631.608 6.356 1.824 1.724 1.216 2.864 2.9 3.426 5.057H19.64Z" fill="#727597"/>
    <path d="M19.681 11.409a3.85 3.85 0 0 0-1.63-1.602c-.708-.368-1.538-.555-2.497-.555-1.655 0-2.982.543-3.976 1.63-.993 1.088-1.496 2.538-1.496 4.35 0 1.813.52 3.444 1.567 4.531 1.046 1.088 2.484 1.631 4.32 1.631 1.836 0 2.315-.321 3.186-.958.865-.638 1.503-1.556 1.9-2.754h-6.49v-3.765h11.126v4.753c-.38 1.274-1.023 2.461-1.929 3.56-.906 1.1-2.058 1.982-3.455 2.66-1.397.678-2.97 1.018-4.724 1.018s-3.923-.456-5.548-1.363a9.729 9.729 0 0 1-3.8-3.782c-.906-1.614-1.362-3.461-1.362-5.53 0-2.07.45-3.924 1.362-5.549a9.728 9.728 0 0 1 3.782-3.8c1.62-.9 3.462-1.356 5.537-1.356 2.075 0 4.63.608 6.355 1.824 1.724 1.216 2.864 2.9 3.426 5.057H19.68Z" fill="#727597"/>
    <path d="M19.722 11.444a3.85 3.85 0 0 0-1.63-1.602c-.708-.368-1.538-.555-2.497-.555-1.655 0-2.982.543-3.976 1.63-.993 1.088-1.496 2.538-1.496 4.35 0 1.813.52 3.444 1.567 4.531 1.046 1.088 2.484 1.631 4.32 1.631 1.836 0 2.315-.321 3.186-.958.865-.638 1.503-1.555 1.9-2.754h-6.49v-3.765h11.126v4.753c-.38 1.275-1.023 2.461-1.93 3.56-.905 1.1-2.057 1.982-3.454 2.66-1.397.679-2.97 1.018-4.724 1.018s-3.923-.456-5.548-1.362a9.728 9.728 0 0 1-3.8-3.783c-.906-1.613-1.362-3.46-1.362-5.53 0-2.07.45-3.923 1.362-5.549a9.728 9.728 0 0 1 3.782-3.8c1.62-.9 3.467-1.35 5.543-1.35 2.075 0 4.63.608 6.354 1.824 1.725 1.216 2.865 2.9 3.426 5.057h-5.653l-.006-.006Z" fill="#727597"/>
    <path d="M19.769 11.485a3.85 3.85 0 0 0-1.631-1.602c-.708-.368-1.538-.555-2.496-.555-1.655 0-2.982.543-3.976 1.63-.994 1.088-1.497 2.538-1.497 4.35 0 1.813.52 3.444 1.567 4.531 1.047 1.088 2.485 1.631 4.32 1.631 1.836 0 2.316-.321 3.187-.958.865-.638 1.502-1.555 1.9-2.754h-6.49v-3.765H25.78v4.753c-.38 1.275-1.023 2.461-1.93 3.56-.905 1.1-2.057 1.982-3.454 2.66-1.398.679-2.97 1.018-4.724 1.018s-3.923-.456-5.548-1.362a9.728 9.728 0 0 1-3.8-3.783c-.912-1.613-1.357-3.455-1.357-5.53 0-2.076.45-3.923 1.362-5.549a9.728 9.728 0 0 1 3.783-3.8c1.614-.9 3.455-1.356 5.53-1.356 2.076 0 4.63.608 6.355 1.824 1.725 1.216 2.865 2.9 3.426 5.057H19.77Z" fill="#727597"/>
    <path d="M19.81 11.526a3.85 3.85 0 0 0-1.631-1.602c-.708-.368-1.538-.555-2.497-.555-1.654 0-2.981.543-3.975 1.63-.994 1.088-1.497 2.538-1.497 4.35 0 1.813.52 3.444 1.567 4.531 1.047 1.088 2.485 1.631 4.32 1.631 1.836 0 2.316-.321 3.187-.958.865-.638 1.502-1.555 1.9-2.754h-6.49v-3.765H25.82v4.753c-.38 1.275-1.023 2.461-1.93 3.56-.906 1.1-2.057 1.982-3.454 2.66-1.398.679-2.97 1.018-4.724 1.018s-3.923-.456-5.548-1.362a9.728 9.728 0 0 1-3.8-3.783C5.457 19.267 5 17.42 5 15.35c0-2.07.45-3.923 1.363-5.549a9.728 9.728 0 0 1 3.782-3.8c1.614-.906 3.455-1.362 5.53-1.362 2.076 0 4.63.608 6.356 1.824 1.724 1.216 2.864 2.9 3.425 5.057h-5.653l.006.006Z" fill="#727597"/>
    <path d="M19.857 11.561a3.85 3.85 0 0 0-1.631-1.602c-.708-.368-1.538-.555-2.497-.555-1.654 0-2.981.544-3.975 1.631-.994 1.087-1.497 2.537-1.497 4.35 0 1.812.52 3.443 1.567 4.53 1.046 1.088 2.485 1.632 4.32 1.632 1.836 0 2.316-.322 3.187-.96.865-.636 1.502-1.554 1.9-2.753h-6.49V14.07h11.126v4.753c-.38 1.275-1.023 2.462-1.93 3.56-.906 1.1-2.057 1.982-3.455 2.66-1.397.679-2.97 1.018-4.723 1.018-1.754 0-3.923-.456-5.549-1.362a9.727 9.727 0 0 1-3.8-3.783c-.906-1.613-1.362-3.46-1.362-5.53 0-2.07.45-3.923 1.362-5.548a9.728 9.728 0 0 1 3.783-3.8c1.614-.907 3.455-1.363 5.53-1.363 2.076 0 4.63.608 6.355 1.824 1.725 1.216 2.865 2.9 3.426 5.057h-5.653l.006.006Z" fill="#727597"/>
    <path d="M19.898 11.602A3.85 3.85 0 0 0 18.267 10c-.708-.368-1.538-.555-2.497-.555-1.654 0-2.981.544-3.975 1.631-.994 1.088-1.497 2.537-1.497 4.35 0 1.812.52 3.443 1.567 4.53 1.046 1.088 2.485 1.632 4.32 1.632 1.836 0 2.315-.322 3.187-.96.865-.636 1.502-1.554 1.9-2.753h-6.49V14.11h11.126v4.753c-.38 1.275-1.024 2.462-1.93 3.56-.906 1.1-2.058 1.983-3.455 2.66-1.397.679-2.97 1.018-4.723 1.018-1.754 0-3.923-.456-5.549-1.362a9.727 9.727 0 0 1-3.8-3.783c-.912-1.613-1.356-3.455-1.356-5.53 0-2.076.45-3.923 1.362-5.548a9.728 9.728 0 0 1 3.783-3.8c1.613-.907 3.455-1.363 5.53-1.363 2.076 0 4.63.608 6.355 1.824 1.725 1.216 2.865 2.9 3.426 5.057h-5.653v.006Z" fill="#727597"/>
    <path d="M19.939 11.643a3.85 3.85 0 0 0-1.631-1.602c-.708-.368-1.538-.556-2.497-.556-1.654 0-2.982.544-3.975 1.632-.994 1.087-1.497 2.537-1.497 4.35 0 1.812.52 3.443 1.567 4.53 1.046 1.087 2.484 1.631 4.32 1.631 1.836 0 2.315-.321 3.186-.959.866-.637 1.503-1.555 1.9-2.753h-6.489V14.15h11.125v4.753c-.38 1.274-1.023 2.461-1.929 3.56-.906 1.1-2.058 1.982-3.455 2.66-1.397.678-2.97 1.018-4.724 1.018s-3.922-.457-5.548-1.363a9.729 9.729 0 0 1-3.8-3.782c-.906-1.614-1.362-3.461-1.362-5.53 0-2.07.45-3.924 1.362-5.549a9.728 9.728 0 0 1 3.783-3.8c1.613-.906 3.455-1.362 5.53-1.362 2.076 0 4.63.608 6.355 1.824 1.725 1.216 2.865 2.9 3.426 5.057h-5.653l.006.006Z" fill="#727597"/>
    <path d="M19.985 11.678a3.85 3.85 0 0 0-1.63-1.602c-.708-.368-1.538-.555-2.497-.555-1.655 0-2.982.543-3.976 1.63-.993 1.088-1.496 2.538-1.496 4.35 0 1.813.52 3.444 1.567 4.531 1.046 1.088 2.484 1.631 4.32 1.631 1.836 0 2.315-.321 3.186-.959.865-.637 1.503-1.555 1.9-2.753h-6.49v-3.765h11.126v4.753c-.38 1.274-1.023 2.461-1.929 3.56-.906 1.1-2.058 1.982-3.455 2.66-1.397.678-2.97 1.018-4.724 1.018s-3.923-.456-5.548-1.363a9.727 9.727 0 0 1-3.8-3.782c-.906-1.614-1.362-3.461-1.362-5.53 0-2.07.45-3.924 1.362-5.549a9.728 9.728 0 0 1 3.783-3.8c1.613-.906 3.455-1.362 5.53-1.362s4.63.608 6.355 1.824c1.724 1.216 2.865 2.9 3.426 5.057H19.98l.005.006Z" fill="#727597"/>
    <path d="M20.026 11.719a3.85 3.85 0 0 0-1.63-1.602c-.708-.368-1.538-.555-2.497-.555-1.655 0-2.982.543-3.976 1.63-.994 1.088-1.496 2.538-1.496 4.35 0 1.813.52 3.444 1.566 4.531 1.047 1.088 2.485 1.631 4.32 1.631 1.837 0 2.316-.321 3.187-.959.865-.637 1.503-1.555 1.9-2.753h-6.49v-3.765h11.126v4.753c-.38 1.274-1.023 2.461-1.93 3.56-.905 1.1-2.057 1.982-3.454 2.66-1.398.678-2.97 1.018-4.724 1.018s-3.923-.456-5.548-1.363a9.727 9.727 0 0 1-3.8-3.782c-.906-1.614-1.362-3.461-1.362-5.53 0-2.07.45-3.923 1.362-5.549a9.728 9.728 0 0 1 3.782-3.8c1.614-.906 3.456-1.362 5.53-1.362 2.076 0 4.631.608 6.356 1.824 1.724 1.216 2.864 2.9 3.426 5.057H20.02l.006.006Z" fill="#727597"/>
    <path d="M20.067 11.76a3.85 3.85 0 0 0-1.63-1.602c-.708-.368-1.538-.555-2.497-.555-1.655 0-2.982.543-3.976 1.63-.994 1.088-1.496 2.538-1.496 4.35 0 1.813.52 3.444 1.566 4.531 1.047 1.088 2.485 1.631 4.32 1.631 1.837 0 2.316-.321 3.187-.959.865-.637 1.503-1.555 1.9-2.753h-6.49v-3.765h11.126v4.753c-.38 1.274-1.023 2.461-1.93 3.56-.905 1.1-2.057 1.982-3.454 2.66-1.398.679-2.97 1.018-4.724 1.018s-3.923-.456-5.548-1.363a9.728 9.728 0 0 1-3.8-3.782c-.912-1.614-1.362-3.461-1.362-5.53 0-2.07.45-3.923 1.362-5.549a9.728 9.728 0 0 1 3.782-3.8c1.614-.906 3.455-1.362 5.53-1.362 2.076 0 4.631.608 6.356 1.824 1.724 1.216 2.864 2.9 3.426 5.057H20.06l.006.006Z" fill="#727597"/>
    <path d="M20.114 11.795a3.85 3.85 0 0 0-1.631-1.602c-.707-.368-1.538-.555-2.497-.555-1.654 0-2.981.543-3.975 1.63-.994 1.088-1.497 2.538-1.497 4.35 0 1.813.52 3.444 1.567 4.531 1.047 1.088 2.485 1.631 4.32 1.631 1.836 0 2.316-.321 3.187-.958.865-.637 1.502-1.555 1.9-2.754h-6.49v-3.765h11.126v4.753c-.38 1.275-1.023 2.461-1.93 3.56-.905 1.1-2.057 1.982-3.454 2.66-1.398.679-2.97 1.018-4.724 1.018s-3.923-.456-5.548-1.362a9.727 9.727 0 0 1-3.8-3.783c-.907-1.614-1.363-3.46-1.363-5.53 0-2.07.45-3.923 1.363-5.549a9.728 9.728 0 0 1 3.782-3.8c1.614-.906 3.455-1.362 5.53-1.362 2.076 0 4.63.608 6.356 1.824 1.724 1.216 2.864 2.9 3.426 5.057h-5.654l.006.006Z" fill="#727597"/>
    <path d="M20.155 11.836a3.85 3.85 0 0 0-1.631-1.602c-.708-.368-1.538-.555-2.497-.555-1.654 0-2.981.543-3.975 1.63-.994 1.088-1.497 2.538-1.497 4.35 0 1.813.52 3.444 1.567 4.531 1.047 1.088 2.485 1.631 4.32 1.631 1.836 0 2.316-.321 3.187-.958.865-.637 1.502-1.555 1.9-2.754h-6.49v-3.765h11.126v4.753c-.38 1.275-1.023 2.461-1.93 3.56-.906 1.1-2.057 1.982-3.455 2.66-1.397.679-2.97 1.018-4.723 1.018-1.754 0-3.923-.456-5.548-1.362a9.727 9.727 0 0 1-3.8-3.783c-.907-1.614-1.363-3.46-1.363-5.53 0-2.07.45-3.923 1.362-5.549a9.728 9.728 0 0 1 3.783-3.8c1.614-.906 3.455-1.362 5.53-1.362 2.076 0 4.63.608 6.355 1.824 1.725 1.216 2.865 2.9 3.426 5.057H20.15l.006.006Z" fill="#727597"/>
    <path d="M20.202 11.877a3.85 3.85 0 0 0-1.632-1.602c-.707-.369-1.537-.556-2.496-.556-1.654 0-2.981.544-3.975 1.632-.994 1.087-1.497 2.537-1.497 4.35 0 1.811.52 3.442 1.567 4.53 1.046 1.087 2.484 1.631 4.32 1.631 1.836 0 2.315-.321 3.186-.959.866-.637 1.503-1.555 1.9-2.753h-6.489v-3.765h11.126v4.753c-.38 1.274-1.023 2.461-1.93 3.56-.906 1.1-2.058 1.982-3.455 2.66-1.397.678-2.97 1.017-4.724 1.017s-3.922-.456-5.548-1.362a9.728 9.728 0 0 1-3.8-3.782c-.912-1.614-1.362-3.461-1.362-5.53 0-2.07.45-3.924 1.362-5.549a9.728 9.728 0 0 1 3.783-3.8c1.613-.906 3.455-1.362 5.53-1.362 2.076 0 4.63.608 6.355 1.824 1.725 1.216 2.865 2.9 3.426 5.057h-5.653l.006.006Z" fill="#727597"/>
    <path d="M20.242 11.912a3.85 3.85 0 0 0-1.63-1.602c-.708-.368-1.538-.555-2.497-.555-1.654 0-2.981.543-3.975 1.63-.994 1.088-1.497 2.538-1.497 4.35 0 1.813.52 3.444 1.567 4.531 1.046 1.088 2.484 1.631 4.32 1.631 1.836 0 2.315-.321 3.186-.959.866-.637 1.503-1.555 1.9-2.753h-6.489V14.42h11.126v4.753c-.38 1.274-1.024 2.461-1.93 3.56-.906 1.1-2.058 1.982-3.455 2.66-1.397.678-2.97 1.017-4.724 1.017s-3.922-.456-5.548-1.362a9.728 9.728 0 0 1-3.8-3.782c-.912-1.614-1.362-3.461-1.362-5.53 0-2.07.45-3.924 1.362-5.549a9.728 9.728 0 0 1 3.783-3.8c1.613-.906 3.455-1.362 5.53-1.362 2.076 0 4.63.608 6.355 1.824 1.725 1.216 2.865 2.9 3.426 5.057h-5.653l.006.006Z" fill="#727597"/>
    <path d="M20.284 11.953a3.85 3.85 0 0 0-1.632-1.602c-.707-.368-1.537-.555-2.496-.555-1.654 0-2.981.543-3.975 1.63-.994 1.088-1.497 2.538-1.497 4.35 0 1.813.52 3.444 1.567 4.531 1.046 1.088 2.484 1.631 4.32 1.631 1.836 0 2.315-.321 3.186-.959.866-.637 1.503-1.555 1.9-2.753h-6.489V14.46h11.126v4.753c-.38 1.274-1.024 2.461-1.93 3.56-.906 1.1-2.058 1.982-3.455 2.66-1.397.678-2.97 1.017-4.724 1.017s-3.922-.456-5.548-1.362a9.727 9.727 0 0 1-3.8-3.782c-.906-1.614-1.362-3.461-1.362-5.53 0-2.07.45-3.924 1.362-5.549a9.728 9.728 0 0 1 3.783-3.8c1.613-.906 3.455-1.362 5.53-1.362 2.076 0 4.63.608 6.355 1.824 1.725 1.216 2.865 2.9 3.426 5.057h-5.653l.006.006Z" fill="#727597"/>
    <path d="M20.33 11.994a3.85 3.85 0 0 0-1.63-1.602c-.708-.368-1.538-.555-2.497-.555-1.655 0-2.982.543-3.976 1.63-.994 1.088-1.496 2.538-1.496 4.35 0 1.813.52 3.444 1.566 4.531 1.047 1.088 2.485 1.631 4.32 1.631 1.837 0 2.316-.321 3.187-.959.865-.637 1.503-1.555 1.9-2.753h-6.49v-3.765H26.34v4.753c-.38 1.274-1.023 2.461-1.929 3.56-.906 1.1-2.058 1.982-3.455 2.66-1.397.678-2.97 1.017-4.724 1.017s-3.923-.456-5.548-1.362a9.728 9.728 0 0 1-3.8-3.782c-.912-1.614-1.362-3.461-1.362-5.53 0-2.07.45-3.924 1.362-5.549a9.728 9.728 0 0 1 3.782-3.8c1.614-.906 3.456-1.362 5.531-1.362 2.075 0 4.63.608 6.355 1.824 1.724 1.216 2.864 2.9 3.426 5.057h-5.654l.006.006Z" fill="#727597"/>
    <path d="M20.371 12.029a3.85 3.85 0 0 0-1.63-1.602c-.708-.368-1.538-.555-2.497-.555-1.655 0-2.982.543-3.976 1.63-.994 1.088-1.496 2.538-1.496 4.35 0 1.813.52 3.444 1.566 4.531 1.047 1.088 2.485 1.631 4.32 1.631 1.836 0 2.316-.321 3.187-.958.865-.638 1.503-1.556 1.9-2.754h-6.49v-3.765h11.126v4.753c-.38 1.274-1.023 2.461-1.93 3.56-.905 1.1-2.057 1.982-3.454 2.66-1.398.679-2.97 1.018-4.724 1.018s-3.923-.456-5.548-1.362a9.728 9.728 0 0 1-3.8-3.783c-.912-1.614-1.362-3.461-1.362-5.53 0-2.07.45-3.923 1.362-5.549a9.728 9.728 0 0 1 3.782-3.8c1.614-.906 3.455-1.362 5.53-1.362 2.076 0 4.631.608 6.356 1.824 1.724 1.216 2.864 2.9 3.426 5.057h-5.654l.006.006Z" fill="#727597"/>
    <path d="M20.412 12.07a3.85 3.85 0 0 0-1.631-1.602c-.707-.369-1.538-.556-2.496-.556-1.655 0-2.982.544-3.976 1.631-.994 1.088-1.496 2.538-1.496 4.35 0 1.812.52 3.443 1.566 4.53 1.047 1.088 2.485 1.632 4.32 1.632 1.836 0 2.316-.322 3.187-.959.865-.637 1.502-1.555 1.9-2.753h-6.49v-3.765h11.126v4.753c-.38 1.274-1.023 2.46-1.93 3.56-.905 1.099-2.057 1.982-3.454 2.66-1.398.678-2.97 1.017-4.724 1.017s-3.923-.456-5.548-1.362a9.727 9.727 0 0 1-3.8-3.782c-.912-1.614-1.362-3.462-1.362-5.531 0-2.07.45-3.923 1.362-5.548a9.728 9.728 0 0 1 3.782-3.8c1.614-.906 3.455-1.362 5.53-1.362 2.076 0 4.631.608 6.356 1.824 1.724 1.216 2.864 2.9 3.426 5.057h-5.654l.006.005Z" fill="#727597"/>
    <path d="M20.459 12.11a3.85 3.85 0 0 0-1.631-1.601c-.708-.369-1.538-.556-2.497-.556-1.654 0-2.981.544-3.975 1.631-.994 1.088-1.497 2.538-1.497 4.35 0 1.812.52 3.443 1.567 4.53 1.047 1.088 2.485 1.632 4.32 1.632 1.836 0 2.316-.322 3.187-.959.865-.637 1.502-1.555 1.9-2.753h-6.49v-3.765H26.47v4.753c-.38 1.274-1.023 2.46-1.93 3.56-.906 1.099-2.057 1.982-3.455 2.66-1.397.678-2.97 1.017-4.723 1.017-1.754 0-3.923-.456-5.549-1.362a9.727 9.727 0 0 1-3.8-3.782C6.1 19.85 5.65 18.003 5.65 15.934c0-2.07.45-3.923 1.362-5.548a9.728 9.728 0 0 1 3.783-3.8c1.614-.906 3.455-1.362 5.53-1.362 2.076 0 4.63.608 6.355 1.824 1.725 1.216 2.865 2.9 3.426 5.057h-5.653l.006.005Z" fill="#727597"/>
    <path d="M20.5 12.146a3.85 3.85 0 0 0-1.631-1.602c-.708-.369-1.538-.556-2.497-.556-1.654 0-2.981.544-3.975 1.632-.994 1.087-1.497 2.537-1.497 4.35 0 1.812.52 3.443 1.567 4.53 1.047 1.087 2.485 1.631 4.32 1.631 1.836 0 2.316-.322 3.187-.959.865-.637 1.502-1.555 1.9-2.753h-6.49v-3.765H26.51v4.753c-.38 1.274-1.023 2.461-1.93 3.56-.906 1.1-2.057 1.982-3.455 2.66-1.397.678-2.97 1.017-4.723 1.017-1.754 0-3.923-.456-5.549-1.362a9.729 9.729 0 0 1-3.8-3.782c-.912-1.614-1.362-3.461-1.362-5.53 0-2.07.45-3.924 1.362-5.549a9.728 9.728 0 0 1 3.783-3.8c1.614-.906 3.455-1.362 5.53-1.362 2.076 0 4.63.608 6.355 1.824 1.725 1.216 2.865 2.9 3.426 5.057h-5.653l.006.006Z" fill="#727597"/>
    <path d="M20.547 12.187a3.85 3.85 0 0 0-1.631-1.602c-.708-.369-1.538-.556-2.497-.556-1.654 0-2.981.544-3.975 1.632-.994 1.087-1.497 2.537-1.497 4.35 0 1.812.52 3.443 1.567 4.53 1.046 1.087 2.485 1.631 4.32 1.631 1.836 0 2.315-.322 3.186-.959.866-.637 1.503-1.555 1.9-2.753h-6.489v-3.765h11.126v4.753c-.38 1.274-1.023 2.461-1.93 3.56-.906 1.1-2.058 1.982-3.455 2.66-1.397.678-2.97 1.017-4.724 1.017s-3.923-.456-5.548-1.362a9.727 9.727 0 0 1-3.8-3.782c-.906-1.614-1.362-3.461-1.362-5.53 0-2.07.45-3.924 1.362-5.549a9.728 9.728 0 0 1 3.783-3.8c1.613-.906 3.455-1.362 5.53-1.362 2.076 0 4.63.608 6.355 1.824 1.725 1.216 2.865 2.9 3.426 5.057h-5.653l.006.006Z" fill="#727597"/>
    <path d="M20.587 12.228a3.85 3.85 0 0 0-1.63-1.602c-.708-.368-1.538-.556-2.497-.556-1.655 0-2.982.544-3.975 1.631-.994 1.088-1.497 2.538-1.497 4.35 0 1.813.52 3.444 1.567 4.531 1.046 1.087 2.484 1.631 4.32 1.631 1.836 0 2.315-.321 3.186-.959.866-.637 1.503-1.555 1.9-2.753h-6.489v-3.765h11.125v4.753c-.38 1.274-1.023 2.461-1.929 3.56-.906 1.1-2.058 1.982-3.455 2.66-1.397.678-2.97 1.017-4.724 1.017s-3.923-.456-5.548-1.362a9.727 9.727 0 0 1-3.8-3.782c-.912-1.614-1.362-3.461-1.362-5.53 0-2.07.45-3.924 1.362-5.549a9.728 9.728 0 0 1 3.783-3.8c1.613-.906 3.455-1.362 5.53-1.362 2.076 0 4.63.608 6.355 1.824 1.725 1.216 2.865 2.9 3.426 5.057h-5.653l.005.006Z" fill="#727597"/>
    <path d="M20.628 12.263a3.85 3.85 0 0 0-1.63-1.602c-.708-.368-1.538-.555-2.497-.555-1.655 0-2.982.543-3.976 1.63-.993 1.088-1.496 2.538-1.496 4.35 0 1.813.52 3.444 1.567 4.531 1.046 1.088 2.484 1.631 4.32 1.631 1.836 0 2.315-.321 3.186-.959.866-.637 1.503-1.555 1.9-2.753h-6.49V14.77h11.126v4.753c-.38 1.274-1.023 2.461-1.929 3.56-.906 1.1-2.058 1.982-3.455 2.66-1.397.678-2.97 1.018-4.724 1.018s-3.923-.456-5.548-1.363a9.728 9.728 0 0 1-3.8-3.782c-.912-1.614-1.362-3.461-1.362-5.53 0-2.07.45-3.923 1.362-5.549a9.728 9.728 0 0 1 3.782-3.8c1.614-.906 3.456-1.362 5.531-1.362 2.075 0 4.63.608 6.355 1.824 1.725 1.216 2.865 2.9 3.426 5.057h-5.654l.006.006Z" fill="#727597"/>
    <path d="M20.675 12.303a3.85 3.85 0 0 0-1.631-1.602c-.707-.368-1.538-.555-2.496-.555-1.655 0-2.982.544-3.976 1.631-.994 1.088-1.496 2.538-1.496 4.35 0 1.812.52 3.443 1.566 4.53 1.047 1.088 2.485 1.632 4.32 1.632 1.837 0 2.316-.322 3.187-.959.865-.637 1.502-1.555 1.9-2.754h-6.49v-3.765h11.126v4.753c-.38 1.275-1.023 2.462-1.93 3.56-.905 1.1-2.057 1.983-3.454 2.66-1.398.679-2.97 1.018-4.724 1.018s-3.923-.456-5.548-1.362a9.727 9.727 0 0 1-3.8-3.783c-.912-1.613-1.362-3.46-1.362-5.53 0-2.07.45-3.923 1.362-5.548a9.728 9.728 0 0 1 3.782-3.8c1.614-.906 3.455-1.362 5.53-1.362 2.076 0 4.631.608 6.356 1.824 1.724 1.216 2.864 2.9 3.426 5.056h-5.654l.006.006Z" fill="#727597"/>
    <path d="M20.716 12.344a3.85 3.85 0 0 0-1.631-1.601c-.707-.369-1.538-.556-2.496-.556-1.655 0-2.982.544-3.976 1.631-.994 1.088-1.496 2.537-1.496 4.35 0 1.812.52 3.443 1.566 4.53 1.047 1.088 2.485 1.632 4.32 1.632 1.837 0 2.316-.322 3.187-.959.865-.637 1.502-1.555 1.9-2.754H15.6v-3.765h11.126v4.753c-.38 1.275-1.023 2.462-1.93 3.56-.905 1.1-2.057 1.983-3.454 2.66-1.398.679-2.97 1.018-4.724 1.018s-3.923-.456-5.548-1.362a9.727 9.727 0 0 1-3.8-3.783c-.912-1.613-1.362-3.46-1.362-5.53 0-2.07.45-3.923 1.362-5.548a9.728 9.728 0 0 1 3.782-3.8c1.614-.906 3.455-1.362 5.53-1.362 2.076 0 4.631.608 6.356 1.824 1.724 1.216 2.864 2.9 3.426 5.057H20.71l.006.005Z" fill="#727597"/>
    <path d="M20.763 12.38a3.85 3.85 0 0 0-1.631-1.602c-.708-.369-1.538-.556-2.497-.556-1.654 0-2.981.544-3.975 1.631-.994 1.088-1.497 2.538-1.497 4.35 0 1.812.52 3.444 1.567 4.53 1.047 1.088 2.485 1.632 4.32 1.632 1.836 0 2.316-.322 3.187-.959.865-.637 1.502-1.555 1.9-2.753h-6.49v-3.765h11.126v4.753c-.38 1.274-1.023 2.46-1.93 3.56-.906 1.1-2.057 1.982-3.454 2.66-1.398.678-2.97 1.017-4.724 1.017s-3.923-.456-5.548-1.362a9.728 9.728 0 0 1-3.8-3.782c-.912-1.614-1.363-3.461-1.363-5.531s.45-3.923 1.363-5.548a9.728 9.728 0 0 1 3.782-3.8c1.614-.906 3.455-1.362 5.53-1.362 2.076 0 4.63.608 6.355 1.824 1.725 1.216 2.865 2.9 3.426 5.057h-5.653l.006.006Z" fill="#727597"/>
    <path d="M20.804 12.42a3.85 3.85 0 0 0-1.631-1.601c-.708-.369-1.538-.556-2.497-.556-1.654 0-2.981.544-3.975 1.631-.994 1.088-1.497 2.538-1.497 4.35 0 1.812.52 3.444 1.567 4.53 1.046 1.088 2.485 1.632 4.32 1.632 1.836 0 2.316-.322 3.187-.959.865-.637 1.502-1.555 1.9-2.753h-6.49v-3.765h11.126v4.753c-.38 1.274-1.023 2.46-1.93 3.56-.906 1.1-2.057 1.982-3.455 2.66-1.397.678-2.97 1.017-4.723 1.017-1.754 0-3.923-.456-5.548-1.362a9.728 9.728 0 0 1-3.8-3.782c-.913-1.614-1.363-3.461-1.363-5.531s.45-3.923 1.362-5.548a9.728 9.728 0 0 1 3.783-3.8c1.614-.906 3.455-1.362 5.53-1.362 2.076 0 4.63.608 6.355 1.824 1.725 1.216 2.865 2.9 3.426 5.057h-5.653l.006.006Z" fill="#727597"/>
    <path d="M20.845 12.462a3.85 3.85 0 0 0-1.631-1.602c-.708-.369-1.538-.556-2.497-.556-1.654 0-2.981.544-3.975 1.631-.994 1.088-1.497 2.538-1.497 4.35 0 1.812.52 3.444 1.567 4.53 1.046 1.088 2.485 1.632 4.32 1.632 1.836 0 2.315-.322 3.186-.959.866-.637 1.503-1.555 1.9-2.753H15.73V14.97h11.126v4.753c-.38 1.274-1.024 2.46-1.93 3.56-.906 1.1-2.058 1.982-3.455 2.66-1.397.678-2.97 1.017-4.723 1.017-1.754 0-3.923-.456-5.549-1.362a9.727 9.727 0 0 1-3.8-3.782c-.906-1.614-1.362-3.461-1.362-5.531s.45-3.923 1.362-5.548a9.728 9.728 0 0 1 3.783-3.8c1.613-.906 3.455-1.362 5.53-1.362 2.076 0 4.63.608 6.355 1.824 1.725 1.216 2.865 2.9 3.426 5.057H20.84l.006.006Z" fill="#727597"/>
    <path d="M20.892 12.496a3.85 3.85 0 0 0-1.631-1.602c-.708-.368-1.538-.555-2.497-.555-1.654 0-2.981.544-3.975 1.631-.994 1.087-1.497 2.537-1.497 4.35 0 1.812.52 3.443 1.567 4.53 1.046 1.088 2.485 1.632 4.32 1.632 1.836 0 2.315-.322 3.186-.96.866-.636 1.503-1.554 1.9-2.753h-6.489v-3.765h11.125v4.753c-.38 1.275-1.023 2.462-1.929 3.56-.906 1.1-2.058 1.983-3.455 2.66-1.397.679-2.97 1.018-4.724 1.018-1.753 0-3.922-.456-5.548-1.362a9.729 9.729 0 0 1-3.8-3.783c-.912-1.613-1.362-3.46-1.362-5.53 0-2.07.45-3.923 1.362-5.548a9.728 9.728 0 0 1 3.783-3.8c1.613-.907 3.455-1.363 5.53-1.363 2.076 0 4.63.608 6.355 1.824 1.725 1.216 2.865 2.9 3.426 5.057h-5.653l.006.006Z" fill="#727597"/>
    <path d="M20.933 12.537a3.85 3.85 0 0 0-1.632-1.602c-.707-.368-1.537-.555-2.496-.555-1.655 0-2.982.544-3.975 1.631-.994 1.088-1.497 2.537-1.497 4.35 0 1.812.52 3.443 1.567 4.53 1.046 1.088 2.484 1.632 4.32 1.632 1.836 0 2.315-.322 3.186-.96.866-.636 1.503-1.554 1.9-2.753h-6.489v-3.765h11.125v4.753c-.38 1.275-1.023 2.462-1.929 3.56-.906 1.1-2.058 1.983-3.455 2.66-1.397.679-2.97 1.018-4.724 1.018s-3.923-.456-5.548-1.362a9.728 9.728 0 0 1-3.8-3.783c-.912-1.613-1.362-3.46-1.362-5.53 0-2.07.45-3.923 1.362-5.548a9.728 9.728 0 0 1 3.783-3.8c1.613-.907 3.455-1.363 5.53-1.363 2.076 0 4.63.608 6.355 1.824 1.725 1.216 2.865 2.9 3.426 5.057h-5.653l.006.006Z" fill="#727597"/>
    <path d="M20.973 12.578a3.85 3.85 0 0 0-1.63-1.602c-.708-.368-1.538-.555-2.497-.555-1.655 0-2.982.544-3.976 1.631-.993 1.088-1.496 2.537-1.496 4.35 0 1.812.52 3.443 1.567 4.53 1.046 1.088 2.484 1.632 4.32 1.632 1.836 0 2.315-.322 3.186-.96.865-.636 1.503-1.554 1.9-2.753h-6.49v-3.765h11.126v4.753c-.38 1.275-1.023 2.462-1.929 3.56-.906 1.1-2.058 1.983-3.455 2.66-1.397.679-2.97 1.018-4.724 1.018s-3.923-.456-5.548-1.362a9.727 9.727 0 0 1-3.8-3.783c-.912-1.613-1.362-3.46-1.362-5.53 0-2.07.45-3.923 1.362-5.548a9.728 9.728 0 0 1 3.782-3.8c1.614-.907 3.456-1.363 5.531-1.363 2.076 0 4.63.608 6.355 1.824 1.725 1.216 2.865 2.9 3.426 5.057h-5.653l.005.006Z" fill="#727597"/>
    <path d="M21.02 12.613a3.85 3.85 0 0 0-1.631-1.601c-.707-.369-1.538-.556-2.496-.556-1.655 0-2.982.544-3.976 1.631-.994 1.088-1.496 2.538-1.496 4.35 0 1.812.52 3.443 1.566 4.53 1.047 1.088 2.485 1.632 4.32 1.632 1.837 0 2.316-.322 3.187-.959.865-.637 1.502-1.555 1.9-2.753h-6.49V15.12H27.03v4.754c-.38 1.274-1.023 2.46-1.93 3.56-.905 1.099-2.057 1.982-3.454 2.66-1.398.678-2.97 1.017-4.724 1.017s-3.923-.456-5.548-1.362a9.728 9.728 0 0 1-3.8-3.782c-.912-1.614-1.362-3.462-1.362-5.531 0-2.07.45-3.923 1.362-5.548a9.728 9.728 0 0 1 3.782-3.8c1.614-.906 3.455-1.362 5.53-1.362 2.076 0 4.631.608 6.356 1.824 1.724 1.216 2.864 2.9 3.426 5.057h-5.654l.006.005Z" fill="#727597"/>
    <path d="M21.061 12.655a3.85 3.85 0 0 0-1.631-1.602c-.707-.369-1.538-.556-2.497-.556-1.654 0-2.981.544-3.975 1.631-.994 1.088-1.497 2.538-1.497 4.35 0 1.812.52 3.443 1.567 4.53 1.047 1.088 2.485 1.632 4.32 1.632 1.836 0 2.316-.322 3.187-.959.865-.637 1.502-1.555 1.9-2.754h-6.49v-3.764h11.126v4.753c-.38 1.274-1.023 2.46-1.93 3.56-.905 1.099-2.057 1.982-3.454 2.66-1.398.678-2.97 1.017-4.724 1.017s-3.923-.456-5.548-1.362a9.728 9.728 0 0 1-3.8-3.782c-.912-1.614-1.363-3.462-1.363-5.531 0-2.07.45-3.923 1.363-5.548a9.728 9.728 0 0 1 3.782-3.8c1.614-.906 3.455-1.362 5.53-1.362 2.076 0 4.63.608 6.356 1.824 1.724 1.216 2.864 2.9 3.425 5.057h-5.653l.006.006Z" fill="#727597"/>
    <path d="M21.108 12.695a3.85 3.85 0 0 0-1.631-1.601c-.708-.369-1.538-.556-2.497-.556-1.654 0-2.981.544-3.975 1.631-.994 1.088-1.497 2.538-1.497 4.35 0 1.812.52 3.443 1.567 4.53 1.047 1.088 2.485 1.632 4.32 1.632 1.836 0 2.316-.322 3.187-.959.865-.637 1.502-1.555 1.9-2.754h-6.49v-3.764h11.126v4.752c-.38 1.275-1.023 2.462-1.93 3.56-.906 1.1-2.057 1.983-3.455 2.66-1.397.68-2.97 1.018-4.723 1.018-1.754 0-3.923-.456-5.548-1.362a9.728 9.728 0 0 1-3.8-3.783c-.913-1.613-1.363-3.46-1.363-5.53 0-2.07.45-3.923 1.362-5.548a9.728 9.728 0 0 1 3.783-3.8c1.614-.906 3.455-1.362 5.53-1.362 2.076 0 4.63.608 6.355 1.824 1.725 1.216 2.865 2.9 3.426 5.057h-5.653l.006.005Z" fill="#727597"/>
    <path d="M21.149 12.73a3.85 3.85 0 0 0-1.631-1.602c-.708-.368-1.538-.555-2.497-.555-1.654 0-2.981.544-3.975 1.631-.994 1.087-1.497 2.537-1.497 4.35 0 1.812.52 3.443 1.567 4.53 1.046 1.088 2.485 1.631 4.32 1.631 1.836 0 2.316-.321 3.187-.958.865-.638 1.502-1.555 1.9-2.754h-6.49v-3.765H27.16v4.753c-.38 1.275-1.023 2.462-1.93 3.56-.906 1.1-2.057 1.982-3.455 2.66-1.397.679-2.97 1.018-4.724 1.018-1.753 0-3.922-.456-5.548-1.362a9.728 9.728 0 0 1-3.8-3.783c-.912-1.613-1.362-3.46-1.362-5.53 0-2.07.45-3.923 1.362-5.548a9.728 9.728 0 0 1 3.783-3.8c1.614-.907 3.455-1.363 5.53-1.363 2.076 0 4.63.608 6.355 1.824 1.725 1.216 2.865 2.9 3.426 5.057h-5.653l.006.006Z" fill="#727597"/>
    <path d="M21.19 12.771a3.85 3.85 0 0 0-1.631-1.602c-.708-.368-1.538-.555-2.497-.555-1.654 0-2.981.544-3.975 1.631-.994 1.087-1.497 2.537-1.497 4.35 0 1.812.52 3.443 1.567 4.53 1.046 1.088 2.485 1.632 4.32 1.632 1.836 0 2.315-.322 3.186-.96.866-.637 1.503-1.554 1.9-2.753h-6.489V15.28H27.2v4.753c-.38 1.275-1.023 2.462-1.93 3.56-.906 1.1-2.058 1.983-3.455 2.66-1.397.679-2.97 1.018-4.724 1.018-1.753 0-3.922-.456-5.548-1.362a9.729 9.729 0 0 1-3.8-3.783c-.912-1.613-1.362-3.46-1.362-5.53 0-2.07.45-3.923 1.362-5.548a9.728 9.728 0 0 1 3.783-3.8c1.613-.907 3.455-1.363 5.53-1.363 2.076 0 4.63.608 6.355 1.824 1.725 1.216 2.865 2.9 3.426 5.057h-5.653l.006.006Z" fill="#727597"/>
    <path d="M21.236 12.812a3.85 3.85 0 0 0-1.63-1.602c-.708-.368-1.538-.555-2.497-.555-1.655 0-2.982.544-3.976 1.631-.993 1.087-1.496 2.537-1.496 4.35 0 1.812.52 3.443 1.567 4.53 1.046 1.088 2.484 1.632 4.32 1.632 1.836 0 2.315-.322 3.186-.96.866-.636 1.503-1.554 1.9-2.753h-6.49V15.32h11.126v4.753c-.38 1.275-1.023 2.462-1.929 3.56-.906 1.1-2.058 1.983-3.455 2.66-1.397.679-2.97 1.018-4.724 1.018s-3.923-.456-5.548-1.362a9.728 9.728 0 0 1-3.8-3.783c-.912-1.613-1.362-3.46-1.362-5.53 0-2.07.45-3.923 1.362-5.548a9.728 9.728 0 0 1 3.783-3.8c1.613-.907 3.455-1.363 5.53-1.363s4.63.608 6.355 1.824c1.725 1.216 2.865 2.9 3.426 5.057H21.23l.005.006Z" fill="#727597"/>
    <path d="M21.277 12.847a3.85 3.85 0 0 0-1.63-1.601c-.708-.369-1.538-.556-2.497-.556-1.655 0-2.982.544-3.976 1.631-.993 1.088-1.496 2.537-1.496 4.35 0 1.812.52 3.443 1.567 4.53 1.046 1.088 2.484 1.632 4.32 1.632 1.836 0 2.315-.322 3.186-.959.865-.637 1.503-1.555 1.9-2.754h-6.49v-3.765h11.126v4.753c-.38 1.275-1.023 2.462-1.929 3.56-.906 1.1-2.058 1.983-3.455 2.66-1.397.679-2.97 1.018-4.724 1.018s-3.923-.456-5.548-1.362a9.728 9.728 0 0 1-3.8-3.783c-.912-1.613-1.362-3.46-1.362-5.53 0-2.07.45-3.923 1.362-5.548a9.728 9.728 0 0 1 3.782-3.8c1.614-.907 3.456-1.363 5.531-1.363 2.075 0 4.63.608 6.355 1.824 1.725 1.217 2.865 2.9 3.426 5.058H21.27l.006.005Z" fill="#727597"/>
    <path d="M21.318 12.888a3.85 3.85 0 0 0-1.63-1.601c-.708-.369-1.538-.556-2.497-.556-1.655 0-2.982.544-3.976 1.631-.993 1.088-1.496 2.537-1.496 4.35 0 1.812.52 3.443 1.567 4.53 1.046 1.088 2.484 1.632 4.32 1.632 1.836 0 2.315-.322 3.186-.959.865-.637 1.503-1.555 1.9-2.754h-6.49v-3.765h11.126v4.753c-.38 1.275-1.023 2.462-1.929 3.56-.906 1.1-2.058 1.983-3.455 2.66-1.397.679-2.97 1.018-4.724 1.018s-3.923-.456-5.548-1.362a9.728 9.728 0 0 1-3.8-3.783c-.912-1.613-1.362-3.46-1.362-5.53 0-2.07.45-3.923 1.362-5.548a9.728 9.728 0 0 1 3.783-3.8C13.268 6.457 15.11 6 17.184 6s4.63.608 6.355 1.824c1.725 1.217 2.865 2.9 3.426 5.058h-5.654l.006.005Z" fill="#727597"/>
    <path d="M21.365 12.929a3.85 3.85 0 0 0-1.631-1.602c-.707-.368-1.538-.555-2.496-.555-1.655 0-2.982.543-3.976 1.63-.994 1.088-1.497 2.538-1.497 4.35 0 1.813.52 3.444 1.567 4.531 1.047 1.088 2.485 1.631 4.32 1.631 1.836 0 2.316-.321 3.187-.959.865-.637 1.502-1.555 1.9-2.753h-6.49v-3.765h11.126v4.753c-.38 1.274-1.023 2.461-1.93 3.56-.905 1.1-2.057 1.982-3.454 2.66-1.398.678-2.97 1.018-4.724 1.018s-3.923-.456-5.548-1.363a9.727 9.727 0 0 1-3.8-3.782c-.912-1.614-1.362-3.461-1.362-5.53 0-2.07.45-3.924 1.362-5.549a9.728 9.728 0 0 1 3.782-3.8c1.614-.906 3.455-1.362 5.53-1.362 2.076 0 4.631.608 6.356 1.824 1.724 1.216 2.864 2.9 3.426 5.057h-5.654l.006.006Z" fill="#727597"/>
    <path d="M19.611 11.292a3.85 3.85 0 0 0-1.63-1.602c-.708-.368-1.539-.556-2.497-.556-1.655 0-2.982.544-3.976 1.631-.994 1.088-1.496 2.538-1.496 4.35 0 1.812.52 3.444 1.566 4.531 1.047 1.087 2.485 1.631 4.32 1.631 1.837 0 2.316-.322 3.187-.959.865-.637 1.502-1.555 1.9-2.753h-6.49V13.8h11.126v4.753c-.38 1.274-1.023 2.461-1.93 3.56-.905 1.1-2.057 1.982-3.454 2.66-1.397.678-2.97 1.017-4.724 1.017s-3.923-.456-5.548-1.362a9.728 9.728 0 0 1-3.8-3.782c-.906-1.614-1.357-3.455-1.357-5.53 0-2.076.45-3.924 1.363-5.549a9.728 9.728 0 0 1 3.782-3.8c1.614-.9 3.455-1.356 5.53-1.356 2.076 0 4.631.608 6.356 1.824 1.724 1.216 2.864 2.9 3.426 5.057H19.61Z" fill="#FA8A5B"/>
  </g>
  <defs>
    <clipPath id="a">
      <path fill="#fff" transform="translate(4.75 4.41)" d="M0 0h22.625v23.017H0z"/>
    </clipPath>
  </defs>
</svg>